inDegrees=no
num_controls=7
num_derivatives=13
num_iterations=83
num_multipliers=7
num_parameters=0
num_slacks=7
num_states=26
objective=5.619147
objective_accelerations=0.285575
objective_balance=0.029591
objective_effort=0.376869
objective_height=4.839542
objective_ligament=0.087570
solver_duration=724.419969
status=Solve_Succeeded
success=true
DataType=double
version=3
OpenSimVersion=4.4-2022-07-23-0e9fedc
endheader
time	/jointset/ground_pelvis/pelvis_tilt/value	/jointset/ground_pelvis/pelvis_tx/value	/jointset/ground_pelvis/pelvis_ty/value	/jointset/hip_r/hip_flexion_r/value	/jointset/hip_r/hip_adduction_r/value	/jointset/hip_r/hip_rotation_r/value	/jointset/back/lumbar_extension/value	/jointset/patellofemoral_r/patellar_flexion_r/value	/jointset/knee_r/knee_flexion_r/value	/jointset/knee_r/knee_adduction_r/value	/jointset/knee_r/knee_rotation_r/value	/jointset/ankle_r/ankle_angle_r/value	/jointset/subtalar_r/subtalar_angle_r/value	/jointset/ground_pelvis/pelvis_tilt/speed	/jointset/ground_pelvis/pelvis_tx/speed	/jointset/ground_pelvis/pelvis_ty/speed	/jointset/hip_r/hip_flexion_r/speed	/jointset/hip_r/hip_adduction_r/speed	/jointset/hip_r/hip_rotation_r/speed	/jointset/back/lumbar_extension/speed	/jointset/patellofemoral_r/patellar_flexion_r/speed	/jointset/knee_r/knee_flexion_r/speed	/jointset/knee_r/knee_adduction_r/speed	/jointset/knee_r/knee_rotation_r/speed	/jointset/ankle_r/ankle_angle_r/speed	/jointset/subtalar_r/subtalar_angle_r/speed	/forceset/tau_hip_flexion_r	/forceset/tau_hip_adduction_r	/forceset/tau_hip_rotation_r	/forceset/tau_knee_flexion_r	/forceset/tau_ankle_angle_r	/forceset/tau_subtalar_angle_r	/forceset/tau_lumbar_extension	lambda_cid13_p0	lambda_cid14_p0	lambda_cid14_p1	lambda_cid14_p2	lambda_cid14_p3	lambda_cid14_p4	lambda_cid14_p5	/jointset/ground_pelvis/pelvis_tilt/accel	/jointset/ground_pelvis/pelvis_tx/accel	/jointset/ground_pelvis/pelvis_ty/accel	/jointset/hip_r/hip_flexion_r/accel	/jointset/hip_r/hip_adduction_r/accel	/jointset/hip_r/hip_rotation_r/accel	/jointset/back/lumbar_extension/accel	/jointset/patellofemoral_r/patellar_flexion_r/accel	/jointset/knee_r/knee_flexion_r/accel	/jointset/knee_r/knee_adduction_r/accel	/jointset/knee_r/knee_rotation_r/accel	/jointset/ankle_r/ankle_angle_r/accel	/jointset/subtalar_r/subtalar_angle_r/accel	gamma_cid13_p0	gamma_cid14_p0	gamma_cid14_p1	gamma_cid14_p2	gamma_cid14_p3	gamma_cid14_p4	gamma_cid14_p5
1	-0.0834206565901601	0.07186802076047467	0.8028101189596113	0.8418541568814567	-0.2305666508297596	-0.1097909033112697	-0.4361198146136577	1.003140606002426	1.003140606002895	-0.03085469428543953	0.1740971601299185	0.4362865052297379	0.1145234206024833	-0.002945408328835832	0.006126554457612439	0.01235023395638987	-0.03695121108076536	0.003065103513565471	-0.0115539357282443	0.0177341479250755	-0.05125344588022618	-0.05125344588022594	-0.0004767248520592464	-0.0002744405551068471	-0.01241371121947025	0.0004593624150769781	-0.1342273957422879	0.02926731724634276	0.01353346430715622	-0.4152642234459065	-0.06804871884222803	0.003433645027702008	0.2026000864541386	-11.89561178442236	-68.35241552738589	-9.986456056018012	1.492013810177258	21.67599972195271	-757.6701151835392	54.78916196955629	0.4605449486202995	-0.02986002350288735	0.9703272329646991	-2.904319008036341	0.1347972311101188	-0.3974754501165154	0.7784020687321197	-3.972427604511535	-3.972427604511614	0.594983075798069	-0.009306367417318873	-1.715289238473716	-0.4585483471456456	1.243296615819517e-09	-1.984283067188882e-09	-4.971245798941193e-09	9.399939233478868e-09	5.616959024383057e-09	-4.896045696030528e-09	-6.720935858797204e-09
1.01	-0.08342788627040974	0.07192792264438387	0.802981993977499	0.841340278436265	-0.2305294760287769	-0.1099260492075118	-0.4359020321078758	1.002429722818517	1.002429722818754	-0.03082915829546855	0.1740942000086289	0.4360767495118717	0.1145047703734063	0.001470031930688123	0.005867925816035197	0.02202221942293742	-0.06581580291984319	0.004367676930446265	-0.01547639164495045	0.02591823267708979	-0.09093165355165435	-0.0909316535516476	0.005589437934557863	-0.0003162085843313706	-0.02952559180540308	-0.004187394412179937	-0.1345451275941345	0.0292103003767933	0.01352645586373245	-0.4148770726662436	-0.06816495942278405	0.003472054092591582	0.2029583848791535	-11.94281777538522	-68.38577056497192	-9.958593892382266	1.468129320949762	21.53782028269155	-757.7909397248545	54.82170851738552	0.4276280819829634	-0.02174755976639619	0.9652503443678018	-2.876227640944832	0.127663005516982	-0.3898004845078086	0.85279359553026	-3.966787155519584	-3.966787155518597	0.6132592744320223	-0.001403071272066027	-1.707361556226086	-0.4674366871891243	2.038977096884573e-09	-1.601050846636275e-09	-9.791330706377712e-09	1.729019294134615e-08	5.998602494796182e-09	-6.629433360003271e-09	-1.301655584328257e-08
1.02	-0.08339184464460678	0.07198566158682246	0.8032505120782316	0.8405380143988318	-0.2304793403719974	-0.1101004536272525	-0.435599532371155	1.00132180359648	1.001321803596469	-0.03074279539880326	0.1740908639968856	0.4356962301706242	0.1144397131087132	0.00570885288471197	0.00569396616349226	0.03167885052480754	-0.09462832952294568	0.005657274688926171	-0.01940564044403557	0.03467759411286269	-0.1306606535055123	-0.1306606535054993	0.01168865649474193	-0.0003496186374371428	-0.04656643589424493	-0.008822044706373646	-0.1348628594460572	0.02915328350730765	0.01351944741913468	-0.4144899218866219	-0.06828120000330552	0.003510463157632345	0.2033166833040782	-12.01649977941524	-68.42967154690356	-9.925912602494218	1.435862841789062	21.41947909175392	-758.0848434560324	54.88689624511417	0.4252210875201292	-0.01292622569586211	0.9672563600292271	-2.893905960841364	0.132202099429912	-0.3988340265923133	0.8934574054839408	-3.982586060997555	-3.982586060997686	0.6015942305115149	-0.00763477219356168	-1.701081939055321	-0.4561270405329659	2.891277433776096e-09	-1.24595791212017e-09	-1.523930601061922e-08	2.572254368603472e-08	6.72792536013034e-09	-8.126356533564123e-09	-2.055659022424173e-08
1.03	-0.08331426191669636	0.07204209536649549	0.8036154675948604	0.8394479190454905	-0.2304163840530046	-0.1103142044121371	-0.4352065946866024	0.9998164592935678	0.9998164592934828	-0.03059530967844357	0.1740872389283573	0.4351457129249293	0.1143283918324708	0.009780528713597664	0.00560810415140625	0.04130433726533729	-0.123377322741153	0.00693049634285693	-0.02334692049402513	0.04400456529399495	-0.1704046504269009	-0.1704046504269074	0.01781166502366372	-0.0003735515199486751	-0.06351971132389909	-0.01343855012748305	-0.1350110270833919	0.02900623665727034	0.01350984791142914	-0.4138655147496236	-0.06818803230245044	0.003515307137917211	0.2035068501755846	-12.11667588775279	-68.38393905069896	-9.889585363256412	1.400126182508248	21.24717765277593	-757.9865849789868	54.92100774817171	0.3940670356913515	-0.004117534784950783	0.9590055674953566	-2.863382705516574	0.1243633134904714	-0.3921308238755235	0.9665103492617877	-3.969773764420476	-3.969773764423329	0.6181289537066466	0.0005091924546063134	-1.689854982607223	-0.463862330515941	3.744155524298501e-09	-8.91152113175866e-10	-2.069368835972608e-08	3.416042603313983e-08	7.460795974392264e-09	-9.620866804161587e-09	-2.810932271128737e-08
1.04	-0.08319677718949015	0.07209813025688501	0.8040764401261863	0.8380707364192795	-0.230340799294528	-0.1105674391633727	-0.4347175486152797	0.9979137815700989	0.9979137815699239	-0.030386498914905	0.1740834308787127	0.4344261819973974	0.1141710154944857	0.01368925274714077	0.005614188306791763	0.05088225346368656	-0.1520457840875826	0.008182962601411803	-0.02730243373091491	0.05389927146847453	-0.2101273376167121	-0.2101273376167368	0.02395366513757394	-0.000386214853077812	-0.0803691722610118	-0.01803305705323225	-0.1351591947209006	0.02885918980732265	0.01350024840251547	-0.413241107612683	-0.06809486460154851	0.003520151118402425	0.2036970170469099	-12.24335890335096	-68.34877687392843	-9.848525427000043	1.356115170134179	21.09348840348003	-758.0624221580123	54.98762849173826	0.3926307284514565	0.005463007798634923	0.9577422515931547	-2.877799586485926	0.1280510203547007	-0.4016806639723459	1.007004404153527	-3.978324114682159	-3.978324114682024	0.6053925475092865	-0.005380862317082289	-1.680319040546799	-0.4517273414608837	4.516362129582611e-09	-6.258499130309455e-10	-2.618990537975755e-08	4.172516871508384e-08	8.157383459225121e-09	-1.103962631855561e-08	-3.536451190225899e-08
1.05	-0.08304100783991722	0.07215467477052785	0.8046329022357726	0.8364073510157025	-0.2302528015530282	-0.1108603072724555	-0.4341268160622006	0.99561408177429	0.9956140817741083	-0.03011619366079044	0.1740795485071236	0.4335386854177646	0.1139678113395457	0.01743726979028863	0.005709025018677712	0.06039690039212824	-0.1806084361231179	0.009412007504657286	-0.03127302249704305	0.06433394688956952	-0.2497989836988014	-0.2497989836988381	0.0301101110256266	-0.0003888731344909731	-0.09711189938720736	-0.02260402341851501	-0.1350697233464637	0.02858940373209279	0.01348969795743645	-0.4124182458701638	-0.06778720902481435	0.003503598162604063	0.2036489855011737	-12.39652454574435	-68.22192666707208	-9.795786005880975	1.304624191852956	20.91093115285221	-757.7317601326038	55.0466594906019	0.3617860694493408	0.01364237063419931	0.9463331987658581	-2.842068288133976	0.119651643056598	-0.3950161788383008	1.074705272732454	-3.959540243121924	-3.959540243123807	0.6211765838688442	0.002507045121225918	-1.668512595136298	-0.4592177260489348	5.286047750953023e-09	-3.633447003485051e-10	-3.168742973325541e-08	4.926262578249158e-08	8.85283709626332e-09	-1.245601862181829e-08	-4.261040286522829e-08
1.06	-0.08284857854448804	0.07221259732484106	0.8052841122717082	0.8344590250365421	-0.2301526492790197	-0.1111929349083017	-0.4334291355225839	0.992918074440019	0.9929180744398294	-0.02978424275294337	0.1740756826239265	0.4324843089575704	0.1137190102325479	0.02102124192147605	0.005889796440864613	0.06983183873304341	-0.209033899200484	0.01061386911777228	-0.03525433909935117	0.07528886877645258	-0.2893888453068584	-0.2893888453069073	0.03628279589032339	-0.0003829171689184917	-0.1137451483726064	-0.02715244746327536	-0.1349802519720273	0.02831961765696912	0.01347914751124324	-0.4115953841276711	-0.06747955344803502	0.003487045207030614	0.2036009539554092	-12.57614353215412	-68.10565444718212	-9.738468211205602	1.24505821690337	20.74572934865871	-757.5756809752577	55.13791107386697	0.3598217460591995	0.02264994985904947	0.9418005340878806	-2.850361794852224	0.1226143623285635	-0.4038262312083115	1.111053697311283	-3.961967219875812	-3.961967219875704	0.6086403428382262	-0.003658012919960131	-1.658423412387227	-0.4472188773563583	6.073020148157083e-09	-1.535468807094755e-10	-3.76835857561099e-08	5.638122741377416e-08	9.644207600480882e-09	-1.393277232988611e-08	-5.000561663128411e-08
1.07	-0.08262109344632503	0.072272754155459	0.8060292219495807	0.8322271791894654	-0.2300406265927291	-0.1115654416788608	-0.4326194082514526	0.989826688648111	0.9898266886480606	-0.02939050326003516	0.1740719246368761	0.4312641761679384	0.1134248448335648	0.02445051998551348	0.006155638098866677	0.07917149751433751	-0.2373057342629903	0.01178477788149254	-0.03924824993970798	0.08673503749360388	-0.3288631553858669	-0.3288631553859012	0.04246749020153319	-0.0003675037647181513	-0.1302602500333314	-0.03167645214951755	-0.1346582294622063	0.02800104277322136	0.01346621475359889	-0.4105722887088977	-0.06692416422679133	0.003403608689940983	0.2033181662053041	-12.78215092985506	-67.88960682279001	-9.696737286173258	1.192556678863949	20.53944490311298	-757.0060561676215	55.16084032957259	0.3306933380561529	0.03066363630222272	0.9272555476374028	-2.81116321778394	0.11345460707888	-0.3973495845034983	1.173166265834694	-3.936390632083127	-3.936390632081005	0.6237381306237315	0.004326897868420704	-1.644879037720065	-0.4543634478313459	6.860912054713996e-09	5.344735419320216e-11	-4.370626474010038e-08	6.347754950058199e-08	1.044068006571862e-08	-1.541273675097549e-08	-5.740877309963178e-08
1.08	-0.08236007306724075	0.07233599187516458	0.8068671696147695	0.8297135012205724	-0.2299170697241319	-0.1119779227725584	-0.4316928657317709	0.9863413142093691	0.9863413142094571	-0.02893484599296283	0.1740683579599945	0.4298795272627342	0.1130855649509982	0.02772829810867843	0.006505974258390268	0.08839943619573132	-0.2654003235588292	0.012920705592594	-0.04324920374219807	0.09865191848744861	-0.3681865746716491	-0.3681865746716695	0.04866635072721445	-0.0003446551293832452	-0.1466483714862428	-0.03617534417868601	-0.1343362069524296	0.02768246788959506	0.01345328199485089	-0.409549193290156	-0.0663687750054959	0.003320172173103321	0.2030353784551295	-13.01447447064855	-67.68410593580528	-9.650536600187742	1.132127787136705	20.3492815589345	-756.6109105834402	55.21587991364712	0.3295217578845204	0.03954885016360982	0.9194565141078537	-2.8149126415189	0.1156181518047593	-0.4052348236349225	1.205196152650119	-3.931789061230662	-3.931789061230696	0.6114735857326574	-0.002170966693060933	-1.633027370824209	-0.4421963459415644	7.542556111097663e-09	1.044521663672781e-10	-4.986038916185355e-08	6.970915835140276e-08	1.133127793746189e-08	-1.67927387399497e-08	-6.480593354058836e-08
